<?xml version="1.0" standalone="no"?>
<!DOCTYPE svg PUBLIC "-//W3C//DTD SVG 20010904//EN"
 "http://www.w3.org/TR/2001/REC-SVG-20010904/DTD/svg10.dtd">
<svg version="1.0" xmlns="http://www.w3.org/2000/svg"
 width="512.000000pt" height="512.000000pt" viewBox="0 0 512.000000 512.000000"
 preserveAspectRatio="xMidYMid meet">
<metadata>
Created by potrace 1.14, written by Peter Selinger 2001-2017
</metadata>
<g transform="translate(0.000000,512.000000) scale(0.100000,-0.100000)"
fill="#000000" stroke="none">
<path d="M1154 4893 c-217 -42 -406 -211 -486 -433 l-23 -65 -2 -1800 c-1
-1187 1 -1819 8 -1855 48 -262 264 -475 521 -517 59 -10 2732 -9 2787 1 195
34 390 191 470 378 52 122 50 81 51 1513 0 943 -3 1342 -11 1370 -10 34 -111
140 -702 731 l-690 691 -927 0 c-734 -1 -941 -3 -996 -14z m1620 -978 c1 -511
3 -563 19 -592 28 -53 84 -100 132 -112 29 -7 223 -11 587 -11 l543 0 -1
-1197 c-1 -1195 -1 -1198 -22 -1239 -27 -52 -81 -100 -129 -113 -53 -15 -2633
-15 -2686 0 -48 13 -102 61 -129 113 l-21 41 0 1755 0 1755 20 40 c12 22 34
52 50 67 62 59 28 57 867 55 l769 -2 1 -560z m693 -5 c143 -142 265 -265 271
-272 8 -11 -40 -13 -264 -13 l-274 0 0 273 c0 149 2 272 4 272 2 0 120 -117
263 -260z"/>
<path d="M1668 3408 c-23 -4 -61 -20 -83 -36 -139 -97 -111 -309 50 -373 20
-7 112 -12 275 -13 266 -1 314 6 366 55 88 82 89 237 3 316 -55 50 -88 56
-336 57 -127 0 -251 -2 -275 -6z"/>
<path d="M1638 2548 c-41 -11 -100 -63 -124 -111 -9 -17 -17 -56 -17 -87 -1
-88 41 -157 121 -197 35 -17 85 -18 927 -20 993 -2 950 -4 1020 67 102 105 71
271 -65 340 -37 19 -63 20 -932 19 -552 -1 -907 -5 -930 -11z"/>
<path d="M1634 1693 c-57 -19 -114 -81 -129 -140 -28 -110 13 -201 115 -253
37 -19 64 -20 924 -20 621 0 900 3 931 11 88 22 156 119 149 211 -7 86 -47
147 -122 185 -35 17 -84 18 -932 19 -732 1 -902 -2 -936 -13z"/>
</g>
</svg>
